<svg xmlns="http://www.w3.org/2000/svg" width="512" height="512" viewBox="0 0 512 512">
  <defs>
    <linearGradient id="bg" x1="0" y1="0" x2="1" y2="1">
      <stop offset="0%" stop-color="#1a211f"/>
      <stop offset="100%" stop-color="#0e1513"/>
    </linearGradient>
  </defs>
  <rect width="512" height="512" rx="100" fill="url(#bg)"/>
  <!-- Leaf icon -->
  <g transform="translate(256,256)">
    <path d="M0-80 C60-80 100-30 100 20 C100 70 60 90 0 90 Z" fill="#57f1db" opacity="0.9"/>
    <path d="M0-40 C30-40 60-10 60 30 C60 60 30 75 0 75 Z" fill="#3cddc7" opacity="0.7"/>
    <path d="M0-80 C-20-50 -30-10 -10 40" stroke="#2dd4bf" stroke-width="2" fill="none" opacity="0.5"/>
    <line x1="0" y1="-80" x2="0" y2="90" stroke="#2dd4bf" stroke-width="2" opacity="0.6"/>
    <path d="M0-80 C30-60 50-30 40 10" stroke="#2dd4bf" stroke-width="1.5" fill="none" opacity="0.4"/>
    <path d="M0-80 C-30-60 -50-30 -40 10" stroke="#2dd4bf" stroke-width="1.5" fill="none" opacity="0.4"/>
  </g>
</svg>
